<svg xmlns="http://www.w3.org/2000/svg" width="61.67" height="86.035" viewBox="0 0 61.67 86.035">
  <path id="Path_32" data-name="Path 32" d="M9.766-47.314a29.9,29.9,0,0,0,2.905,13.062,31.22,31.22,0,0,0,7.837,10.327L20.557,4.2a3.629,3.629,0,0,0,.879,2.734,3.013,3.013,0,0,0,2.149.83,3.586,3.586,0,0,0,1.9-.537A9.26,9.26,0,0,0,27.2,5.859L39.355-6.25a3.42,3.42,0,0,1,.684-.488,1.3,1.3,0,0,1,.586-.146,1.455,1.455,0,0,1,.61.146,2.365,2.365,0,0,1,.659.488L54.053,5.859a10.734,10.734,0,0,0,1.758,1.367,3.586,3.586,0,0,0,1.9.537,2.99,2.99,0,0,0,2.173-.83A3.694,3.694,0,0,0,60.742,4.2V-24.072a30.788,30.788,0,0,0,7.764-10.254,30.354,30.354,0,0,0,2.93-12.988,30.056,30.056,0,0,0-2.417-12.012,31.326,31.326,0,0,0-6.665-9.863,31.4,31.4,0,0,0-9.839-6.665,29.76,29.76,0,0,0-11.938-2.417,29.587,29.587,0,0,0-11.914,2.417,31.483,31.483,0,0,0-9.814,6.665,31.325,31.325,0,0,0-6.665,9.863A30.056,30.056,0,0,0,9.766-47.314Zm7.129,0A24.23,24.23,0,0,1,18.7-56.665a23.923,23.923,0,0,1,5.029-7.666,23.287,23.287,0,0,1,7.544-5.151,23.446,23.446,0,0,1,9.351-1.855,23.272,23.272,0,0,1,9.326,1.855A23.642,23.642,0,0,1,57.5-64.331a23.722,23.722,0,0,1,5.054,7.666,24.23,24.23,0,0,1,1.807,9.351A23.614,23.614,0,0,1,62.6-37.964,23.723,23.723,0,0,1,57.544-30.3a23.568,23.568,0,0,1-7.568,5.151,22.873,22.873,0,0,1-9.351,1.807A23.446,23.446,0,0,1,31.274-25.2a23.289,23.289,0,0,1-7.544-5.151A23.994,23.994,0,0,1,18.7-37.988,24.049,24.049,0,0,1,16.895-47.314Z" transform="translate(-9.766 78.271)"/>
</svg>
