<svg xmlns="http://www.w3.org/2000/svg" width="85.303" height="66.699" viewBox="0 0 85.303 66.699">
  <path id="Path_32" data-name="Path 32" d="M52.441-31.055q2.295,0,4.736-2.49L90.576-66.6q-2.246-1.953-7.959-1.953H20.85q-4.785,0-6.689,1.807l33.5,33.2Q50.146-31.055,52.441-31.055ZM10.644-8.4,37.6-35.254l-27-26.709a14.171,14.171,0,0,0-.83,5.664v42.188Q9.766-10.059,10.644-8.4ZM22.217-1.855H83.984q4.688,0,6.641-1.758L63.037-31.152,60.6-28.711q-4,3.857-8.154,3.857-4.2,0-8.2-3.857l-2.393-2.441L14.356-3.711Q16.65-1.855,22.217-1.855ZM94.189-8.4a13.414,13.414,0,0,0,.879-5.713V-56.3a12.9,12.9,0,0,0-.879-5.615L67.236-35.254Z" transform="translate(-9.766 68.555)"/>
</svg>
