<svg xmlns="http://www.w3.org/2000/svg" width="102.929" height="94.58" viewBox="0 0 102.929 94.58">
  <path id="Path_32" data-name="Path 32" d="M108.789-53.076,71.582-70.068a33.21,33.21,0,0,0-5.444-1.953,20.013,20.013,0,0,0-4.907-.635,20.014,20.014,0,0,0-4.907.635,33.21,33.21,0,0,0-5.444,1.953L13.672-53.076a6.448,6.448,0,0,0-2.954,2.368,5.6,5.6,0,0,0-.952,3.052,5.3,5.3,0,0,0,.952,2.954,6.886,6.886,0,0,0,2.954,2.368l14.7,6.689,24.8-11.377a1.815,1.815,0,0,1-.073-.317,2.254,2.254,0,0,1-.024-.317q0-2,2.637-3.223A13.431,13.431,0,0,1,61.426-52.1a13.317,13.317,0,0,1,5.664,1.221q2.637,1.221,2.637,3.223T67.09-44.409a13.1,13.1,0,0,1-5.664,1.245,14.259,14.259,0,0,1-3.564-.439L34.424-32.861l16.455,7.568a30.893,30.893,0,0,0,5.444,2,18.457,18.457,0,0,0,4.907.586,18.456,18.456,0,0,0,4.907-.586,30.893,30.893,0,0,0,5.444-2l37.207-17.041a6.886,6.886,0,0,0,2.954-2.368,5.3,5.3,0,0,0,.952-2.954,5.6,5.6,0,0,0-.952-3.052A6.447,6.447,0,0,0,108.789-53.076ZM34.229-26.66V-3.125A42.134,42.134,0,0,0,46.021,1.44,65.634,65.634,0,0,0,61.23,3.076a66.89,66.89,0,0,0,15.5-1.66A42.179,42.179,0,0,0,88.7-3.247a23.865,23.865,0,0,0,7.69-6.982A15.181,15.181,0,0,0,99.072-18.9V-31.641l-25.1,11.523A30.286,30.286,0,0,1,61.23-16.992a30.286,30.286,0,0,1-12.744-3.125Zm-10.84-4.932v12.7a13.942,13.942,0,0,0,1.343,5.615,20.319,20.319,0,0,0,3.882,5.713V-29.2ZM28.613,6.3h5.615V-3.125Q32.617-4.15,31.2-5.249a23.817,23.817,0,0,1-2.588-2.319Zm-3.027.293V16.65a5.2,5.2,0,0,0,1.441,3.809,5.133,5.133,0,0,0,3.833,1.465h1.074a5.024,5.024,0,0,0,5.273-5.273V6.592a5.152,5.152,0,0,0-1.465-3.809,5.152,5.152,0,0,0-3.809-1.465H30.859a5.133,5.133,0,0,0-3.833,1.465A5.2,5.2,0,0,0,25.586,6.592Z" transform="translate(-9.766 72.656)"/>
</svg>
