<svg xmlns="http://www.w3.org/2000/svg" width="76.563" height="71.191" viewBox="0 0 76.563 71.191">
  <g id="Regular-S" transform="translate(-9.766 70.801)">
    <path id="Path_32" data-name="Path 32" d="M22.217.391h51.66q6.25,0,9.351-3.076t3.1-9.229V-58.5q0-6.152-3.1-9.229T73.877-70.8H22.217q-6.2,0-9.326,3.076T9.766-58.5v46.582q0,6.152,3.125,9.229T22.217.391Zm-.684-7.08a4.834,4.834,0,0,1-3.491-1.2A4.758,4.758,0,0,1,16.8-11.475V-48.193a4.758,4.758,0,0,1,1.245-3.589,4.834,4.834,0,0,1,3.491-1.2H74.512a4.906,4.906,0,0,1,3.54,1.2A4.758,4.758,0,0,1,79.3-48.193v36.719a4.758,4.758,0,0,1-1.245,3.589,4.906,4.906,0,0,1-3.54,1.2ZM40.625-39.16h2.246a2.187,2.187,0,0,0,1.514-.415,2.01,2.01,0,0,0,.439-1.489v-2.246a2.01,2.01,0,0,0-.439-1.489,2.187,2.187,0,0,0-1.514-.415H40.625a2.187,2.187,0,0,0-1.514.415,2.01,2.01,0,0,0-.439,1.489v2.246a2.01,2.01,0,0,0,.439,1.489A2.187,2.187,0,0,0,40.625-39.16Zm12.549,0H55.42a2.187,2.187,0,0,0,1.514-.415,2.01,2.01,0,0,0,.439-1.489v-2.246a2.01,2.01,0,0,0-.439-1.489,2.187,2.187,0,0,0-1.514-.415H53.174a2.187,2.187,0,0,0-1.514.415,2.009,2.009,0,0,0-.439,1.489v2.246a2.009,2.009,0,0,0,.439,1.489A2.187,2.187,0,0,0,53.174-39.16Zm12.549,0h2.246a2.187,2.187,0,0,0,1.514-.415,2.009,2.009,0,0,0,.439-1.489v-2.246a2.009,2.009,0,0,0-.439-1.489,2.187,2.187,0,0,0-1.514-.415H65.723a2.187,2.187,0,0,0-1.514.415,2.009,2.009,0,0,0-.439,1.489v2.246a2.009,2.009,0,0,0,.439,1.489A2.187,2.187,0,0,0,65.723-39.16ZM28.076-26.807h2.246a2.187,2.187,0,0,0,1.514-.415,2.009,2.009,0,0,0,.439-1.489v-2.246a2.01,2.01,0,0,0-.439-1.489,2.187,2.187,0,0,0-1.514-.415H28.076a2.187,2.187,0,0,0-1.514.415,2.01,2.01,0,0,0-.44,1.489v2.246a2.009,2.009,0,0,0,.44,1.489A2.187,2.187,0,0,0,28.076-26.807Zm12.549,0h2.246a2.187,2.187,0,0,0,1.514-.415,2.01,2.01,0,0,0,.439-1.489v-2.246a2.01,2.01,0,0,0-.439-1.489,2.187,2.187,0,0,0-1.514-.415H40.625a2.187,2.187,0,0,0-1.514.415,2.01,2.01,0,0,0-.439,1.489v2.246a2.01,2.01,0,0,0,.439,1.489A2.187,2.187,0,0,0,40.625-26.807Zm12.549,0H55.42a2.187,2.187,0,0,0,1.514-.415,2.01,2.01,0,0,0,.439-1.489v-2.246a2.01,2.01,0,0,0-.439-1.489,2.187,2.187,0,0,0-1.514-.415H53.174a2.187,2.187,0,0,0-1.514.415,2.01,2.01,0,0,0-.439,1.489v2.246a2.009,2.009,0,0,0,.439,1.489A2.187,2.187,0,0,0,53.174-26.807Zm12.549,0h2.246a2.187,2.187,0,0,0,1.514-.415,2.009,2.009,0,0,0,.439-1.489v-2.246a2.01,2.01,0,0,0-.439-1.489,2.187,2.187,0,0,0-1.514-.415H65.723a2.187,2.187,0,0,0-1.514.415,2.01,2.01,0,0,0-.439,1.489v2.246a2.009,2.009,0,0,0,.439,1.489A2.187,2.187,0,0,0,65.723-26.807ZM28.076-14.453h2.246a2.187,2.187,0,0,0,1.514-.415,2.009,2.009,0,0,0,.439-1.489V-18.6a2.01,2.01,0,0,0-.439-1.489,2.187,2.187,0,0,0-1.514-.415H28.076a2.187,2.187,0,0,0-1.514.415,2.01,2.01,0,0,0-.44,1.489v2.246a2.009,2.009,0,0,0,.44,1.489A2.187,2.187,0,0,0,28.076-14.453Zm12.549,0h2.246a2.187,2.187,0,0,0,1.514-.415,2.01,2.01,0,0,0,.439-1.489V-18.6a2.01,2.01,0,0,0-.439-1.489,2.187,2.187,0,0,0-1.514-.415H40.625a2.187,2.187,0,0,0-1.514.415,2.01,2.01,0,0,0-.439,1.489v2.246a2.01,2.01,0,0,0,.439,1.489A2.187,2.187,0,0,0,40.625-14.453Zm12.549,0H55.42a2.187,2.187,0,0,0,1.514-.415,2.01,2.01,0,0,0,.439-1.489V-18.6a2.01,2.01,0,0,0-.439-1.489,2.187,2.187,0,0,0-1.514-.415H53.174a2.187,2.187,0,0,0-1.514.415,2.01,2.01,0,0,0-.439,1.489v2.246a2.009,2.009,0,0,0,.439,1.489A2.187,2.187,0,0,0,53.174-14.453Z"/>
  </g>
</svg>
