<svg xmlns="http://www.w3.org/2000/svg" width="64.6" height="69.141" viewBox="0 0 64.6 69.141">
  <g id="Regular-S" transform="translate(-9.766 69.19)">
    <path id="Path_32" data-name="Path 32" d="M16.553-.049H67.529A8.068,8.068,0,0,0,72.559-1.44a4.571,4.571,0,0,0,1.807-3.833,16.309,16.309,0,0,0-2.246-7.812,27.745,27.745,0,0,0-6.445-7.69,33.774,33.774,0,0,0-10.181-5.835,38.043,38.043,0,0,0-13.452-2.246,37.84,37.84,0,0,0-13.428,2.246,33.838,33.838,0,0,0-10.156,5.835,27.745,27.745,0,0,0-6.445,7.69A16.309,16.309,0,0,0,9.766-5.273,4.6,4.6,0,0,0,11.548-1.44,7.96,7.96,0,0,0,16.553-.049ZM42.041-35.693a13.881,13.881,0,0,0,7.617-2.246,16.78,16.78,0,0,0,5.664-6.1,17.457,17.457,0,0,0,2.148-8.643,16.78,16.78,0,0,0-2.148-8.521,16.052,16.052,0,0,0-5.664-5.859,14.465,14.465,0,0,0-7.617-2.124,14.139,14.139,0,0,0-7.568,2.173,16.393,16.393,0,0,0-5.664,5.933,16.817,16.817,0,0,0-2.148,8.5,17.222,17.222,0,0,0,2.148,8.569,16.835,16.835,0,0,0,5.664,6.079A13.8,13.8,0,0,0,42.041-35.693Z"/>
  </g>
</svg>
