<svg xmlns="http://www.w3.org/2000/svg" width="95.257" height="88.926" viewBox="0 0 95.257 88.926">
  <path id="Path_32" data-name="Path 32" d="M17.676,6.2a7.091,7.091,0,0,0,5.615,2.417,8.4,8.4,0,0,0,5.615-3.2L64.844-35.889,53.369-47.412,12.061-11.426Q8.984-8.789,8.789-5.835A7.146,7.146,0,0,0,11.231-.244Zm68.31-33.35a4.431,4.431,0,0,0,2.783,1.367A3.474,3.474,0,0,0,91.5-26.953L102.93-38.33a3.44,3.44,0,0,0,1.1-2.685,4.352,4.352,0,0,0-1.342-2.832l-2.735-2.686a4.787,4.787,0,0,0-1.88-1.343,4.729,4.729,0,0,0-1.88-.171l-4.98.635-2.686-2.637,1.465-5.615q1.025-4.2-3.467-8.691L79.15-71.729a28.322,28.322,0,0,0-9.473-6.177A33.152,33.152,0,0,0,58.35-80.273,31.061,31.061,0,0,0,46.9-78.516a25.7,25.7,0,0,0-9.741,6.152,3.662,3.662,0,0,0-1.343,2.93,3.954,3.954,0,0,0,1.05,2.49,4.645,4.645,0,0,0,1.807.977,3.171,3.171,0,0,0,2.051-.1,38.312,38.312,0,0,1,10.449-1.978,16.823,16.823,0,0,1,9.033,2.173l-2.93,7.91a7.59,7.59,0,0,0-.513,4.468A7.318,7.318,0,0,0,58.887-50l8.4,8.447a6.2,6.2,0,0,0,2.637,1.636,6.738,6.738,0,0,0,3.369-.024l6.4-1.27,2.588,2.637-.488,4.932a5.691,5.691,0,0,0,.146,2.026,4.526,4.526,0,0,0,1.318,1.88Z" transform="translate(-8.776 80.291)"/>
</svg>
