<svg xmlns="http://www.w3.org/2000/svg" width="132.226" height="71.191" viewBox="0 0 132.226 71.191">
  <g id="Regular-S" transform="translate(-9.766 70.801)">
    <path id="Path_55" data-name="Path 55" d="M47.412.391h56.934q6.25,0,9.35-3.076t3.1-9.229V-58.5q0-6.152-3.1-9.229t-9.35-3.076H47.412q-6.25,0-9.351,3.076t-3.1,9.229v46.582q0,6.152,3.1,9.229T47.412.391Zm6.445-7.08V-63.721H97.9V-6.689Zm50.928-16.5V-47.217a2.494,2.494,0,0,1,.757-1.831,2.5,2.5,0,0,1,1.831-.757,2.5,2.5,0,0,1,1.831.757,2.494,2.494,0,0,1,.757,1.831v24.023a2.494,2.494,0,0,1-.757,1.831,2.5,2.5,0,0,1-1.831.757,2.5,2.5,0,0,1-1.831-.757A2.494,2.494,0,0,1,104.785-23.193Zm-62.988,0V-47.217a2.456,2.456,0,0,1,.781-1.831,2.52,2.52,0,0,1,1.807-.757,2.494,2.494,0,0,1,1.831.757,2.494,2.494,0,0,1,.757,1.831v24.023a2.494,2.494,0,0,1-.757,1.831,2.494,2.494,0,0,1-1.831.757,2.52,2.52,0,0,1-1.807-.757A2.456,2.456,0,0,1,41.8-23.193Z" fill="#4d4d4d"/>
    <path id="Path_56" data-name="Path 56" d="M16.016-22.949l10.449-8.838a4.2,4.2,0,0,0,1.587-3.3,4.262,4.262,0,0,0-1.587-3.247L16.016-47.363a3.843,3.843,0,0,0-4.175-.879q-2.075.879-2.075,3.662v18.9a3.8,3.8,0,0,0,1,2.808,3.437,3.437,0,0,0,2.466,1.025A4.125,4.125,0,0,0,16.016-22.949Zm119.726,0a3.853,3.853,0,0,0,4.126.806,3.421,3.421,0,0,0,2.124-3.54v-18.9q0-2.783-2.075-3.662a3.843,3.843,0,0,0-4.175.879L125.293-38.33a4.26,4.26,0,0,0-1.587,3.247,4.2,4.2,0,0,0,1.587,3.3Z" fill="#212121"/>
  </g>
</svg>
