<svg xmlns="http://www.w3.org/2000/svg" width="86.67" height="74.902" viewBox="0 0 86.67 74.902">
  <path id="Path_32" data-name="Path 32" d="M53.076-40.332a137.577,137.577,0,0,0,14.795-.781A105.366,105.366,0,0,0,82.2-43.677a100.077,100.077,0,0,0,14.233-4.761v-2.295q0-6.1-3.1-9.155t-9.351-3.052H72.852v-2.246q0-5.859-2.93-8.569t-8.447-2.71h-16.8a12.035,12.035,0,0,0-8.252,2.71q-3.076,2.71-3.076,8.569v2.246H22.168q-6.2,0-9.3,3.052t-3.1,9.155v2.295A100.077,100.077,0,0,0,24-43.677,105.37,105.37,0,0,0,38.33-41.113,137.11,137.11,0,0,0,53.076-40.332ZM40.088-62.939v-2.783A4.338,4.338,0,0,1,41.26-68.97a4.547,4.547,0,0,1,3.32-1.147H61.572a4.547,4.547,0,0,1,3.32,1.147,4.338,4.338,0,0,1,1.172,3.247v2.783ZM22.168-1.562H83.984q6.25,0,9.351-3.052t3.1-9.2V-41.357a114.359,114.359,0,0,1-16.65,4.785,127.514,127.514,0,0,1-16.26,2.246V-31.2q0,4.346-4.394,4.346H47.07q-4.395,0-4.395-4.346v-3.125a127.457,127.457,0,0,1-16.309-2.246,112.643,112.643,0,0,1-16.6-4.785v27.539q0,6.152,3.1,9.2T22.168-1.562Z" transform="translate(-9.766 76.465)"/>
</svg>
